<svg xmlns="http://www.w3.org/2000/svg" width="18" height="17.941" viewBox="0 0 18 17.941"><path d="M18.71,1.94H3.29A1.25,1.25,0,0,0,2,3.2V18.62a1.25,1.25,0,0,0,1.26,1.26H18.71A1.25,1.25,0,0,0,20,18.62V3.2a1.25,1.25,0,0,0-1.29-1.26ZM7.4,17H4.78V8.4H7.4ZM6.11,7.2A1.56,1.56,0,0,1,4.57,5.65,1.52,1.52,0,0,1,6.12,4.16,1.56,1.56,0,0,1,7.66,5.71,1.51,1.51,0,0,1,6.11,7.2ZM17.43,17H14.79V12.64a4.29,4.29,0,0,0-.1-1.13,2.35,2.35,0,0,0-.17-.44,1,1,0,0,0-.69-.52,1.81,1.81,0,0,0-1,0,1.31,1.31,0,0,0-.88,1,3.61,3.61,0,0,0-.12,1v4.4H9.11V8.4h2.54V9.56s.06,0,.06-.05a2.61,2.61,0,0,1,1.88-1.29,3.78,3.78,0,0,1,2.13.18,2.38,2.38,0,0,1,1.36,1.4,4.78,4.78,0,0,1,.31,1.5c0,.41,0,.83,0,1.25V17Z" transform="translate(-2 -1.939)"/></svg>