<svg xmlns="http://www.w3.org/2000/svg" width="18" height="17.941" viewBox="0 0 18 17.941"><path d="M18.71,1.94H3.29A1.25,1.25,0,0,0,2,3.2V18.62a1.25,1.25,0,0,0,1.26,1.26H18.71A1.25,1.25,0,0,0,20,18.62V3.2a1.25,1.25,0,0,0-1.29-1.26Zm-1.35,5.2A5.21,5.21,0,0,1,16.27,8.2v.05a6.62,6.62,0,0,1,0,1.09,8.15,8.15,0,0,1-.42,1.82,7.81,7.81,0,0,1-1.14,2.13,7.33,7.33,0,0,1-2.19,2,7,7,0,0,1-2.11.82,6.85,6.85,0,0,1-1,.16,7.46,7.46,0,0,1-1.25,0,7.53,7.53,0,0,1-2.48-.57,7.22,7.22,0,0,1-1.17-.61h0a5.44,5.44,0,0,0,4-1.12,2.71,2.71,0,0,1-2.5-1.88A2.66,2.66,0,0,0,7.08,12,2.7,2.7,0,0,1,5.3,10.7a2.55,2.55,0,0,1-.36-1.39,2.68,2.68,0,0,0,1.21.34A2.67,2.67,0,0,1,5,7.72a2.58,2.58,0,0,1,.34-1.67A7.72,7.72,0,0,0,10.9,8.88c0-.09,0-.17,0-.25a2.71,2.71,0,0,1,2.7-3.08,2.68,2.68,0,0,1,1.71.66l.18.17h0a5.38,5.38,0,0,0,1.63-.62h.06a2.79,2.79,0,0,1-.46.85,2.7,2.7,0,0,1-.71.64,5.44,5.44,0,0,0,1.52-.41h0Z" transform="translate(-2 -1.939)"/></svg>